<svg viewBox="0 0 1374 400" xmlns="http://www.w3.org/2000/svg"><g><g><g><g><g><line x1="51.5625" y1="378" x2="46.5625" y2="378" style="visibility: inherit;" fill="rgb(0, 0, 0)" stroke="rgb(204, 204, 204)" stroke-width="1px"></line><line x1="51.5625" y1="340.2" x2="46.5625" y2="340.2" style="visibility: inherit;" fill="rgb(0, 0, 0)" stroke="rgb(204, 204, 204)" stroke-width="1px"></line><line x1="51.5625" y1="302.40000000000003" x2="46.5625" y2="302.40000000000003" style="visibility: inherit;" fill="rgb(0, 0, 0)" stroke="rgb(204, 204, 204)" stroke-width="1px"></line><line x1="51.5625" y1="264.59999999999997" x2="46.5625" y2="264.59999999999997" style="visibility: inherit;" fill="rgb(0, 0, 0)" stroke="rgb(204, 204, 204)" stroke-width="1px"></line><line x1="51.5625" y1="226.79999999999998" x2="46.5625" y2="226.79999999999998" style="visibility: inherit;" fill="rgb(0, 0, 0)" stroke="rgb(204, 204, 204)" stroke-width="1px"></line><line x1="51.5625" y1="189" x2="46.5625" y2="189" style="visibility: inherit;" fill="rgb(0, 0, 0)" stroke="rgb(204, 204, 204)" stroke-width="1px"></line><line x1="51.5625" y1="151.20000000000002" x2="46.5625" y2="151.20000000000002" style="visibility: inherit;" fill="rgb(0, 0, 0)" stroke="rgb(204, 204, 204)" stroke-width="1px"></line><line x1="51.5625" y1="113.40000000000002" x2="46.5625" y2="113.40000000000002" style="visibility: inherit;" fill="rgb(0, 0, 0)" stroke="rgb(204, 204, 204)" stroke-width="1px"></line><line x1="51.5625" y1="75.59999999999998" x2="46.5625" y2="75.59999999999998" style="visibility: inherit;" fill="rgb(0, 0, 0)" stroke="rgb(204, 204, 204)" stroke-width="1px"></line><line x1="51.5625" y1="37.79999999999999" x2="46.5625" y2="37.79999999999999" style="visibility: inherit;" fill="rgb(0, 0, 0)" stroke="rgb(204, 204, 204)" stroke-width="1px"></line><line x1="51.5625" y1="0" x2="46.5625" y2="0" style="visibility: inherit;" fill="rgb(0, 0, 0)" stroke="rgb(204, 204, 204)" stroke-width="1px"></line></g><g transform="translate(41.5625, 0)"><text x="0" y="378" dx="0em" dy="0.3em" style="text-anchor: end; visibility: hidden; font-family: Roboto, sans-serif; font-size: 12px; font-weight: 200;" fill="rgb(50, 49, 63)" stroke="none" stroke-width="1px">-0.5</text><text x="0" y="340.2" dx="0em" dy="0.3em" style="text-anchor: end; visibility: inherit; font-family: Roboto, sans-serif; font-size: 12px; font-weight: 200;" fill="rgb(50, 49, 63)" stroke="none" stroke-width="1px">0</text><text x="0" y="302.40000000000003" dx="0em" dy="0.3em" style="text-anchor: end; visibility: inherit; font-family: Roboto, sans-serif; font-size: 12px; font-weight: 200;" fill="rgb(50, 49, 63)" stroke="none" stroke-width="1px">0.5</text><text x="0" y="264.59999999999997" dx="0em" dy="0.3em" style="text-anchor: end; visibility: inherit; font-family: Roboto, sans-serif; font-size: 12px; font-weight: 200;" fill="rgb(50, 49, 63)" stroke="none" stroke-width="1px">1</text><text x="0" y="226.79999999999998" dx="0em" dy="0.3em" style="text-anchor: end; visibility: inherit; font-family: Roboto, sans-serif; font-size: 12px; font-weight: 200;" fill="rgb(50, 49, 63)" stroke="none" stroke-width="1px">1.5</text><text x="0" y="189" dx="0em" dy="0.3em" style="text-anchor: end; visibility: inherit; font-family: Roboto, sans-serif; font-size: 12px; font-weight: 200;" fill="rgb(50, 49, 63)" stroke="none" stroke-width="1px">2</text><text x="0" y="151.20000000000002" dx="0em" dy="0.3em" style="text-anchor: end; visibility: inherit; font-family: Roboto, sans-serif; font-size: 12px; font-weight: 200;" fill="rgb(50, 49, 63)" stroke="none" stroke-width="1px">2.5</text><text x="0" y="113.40000000000002" dx="0em" dy="0.3em" style="text-anchor: end; visibility: inherit; font-family: Roboto, sans-serif; font-size: 12px; font-weight: 200;" fill="rgb(50, 49, 63)" stroke="none" stroke-width="1px">3</text><text x="0" y="75.59999999999998" dx="0em" dy="0.3em" style="text-anchor: end; visibility: inherit; font-family: Roboto, sans-serif; font-size: 12px; font-weight: 200;" fill="rgb(50, 49, 63)" stroke="none" stroke-width="1px">3.5</text><text x="0" y="37.79999999999999" dx="0em" dy="0.3em" style="text-anchor: end; visibility: inherit; font-family: Roboto, sans-serif; font-size: 12px; font-weight: 200;" fill="rgb(50, 49, 63)" stroke="none" stroke-width="1px">4</text><text x="0" y="0" dx="0em" dy="0.3em" style="text-anchor: end; visibility: hidden; font-family: Roboto, sans-serif; font-size: 12px; font-weight: 200;" fill="rgb(50, 49, 63)" stroke="none" stroke-width="1px">4.5</text></g><line x1="51.5625" y1="0" x2="51.5625" y2="378" fill="rgb(0, 0, 0)" stroke="rgb(204, 204, 204)" stroke-width="1px"></line></g></g><g transform="translate(51, 0)" clip-path="url(#clip_0)"><clipPath id="clip_0"><rect width="1322" height="378"></rect></clipPath><g><g><g><line x1="0" y1="0" x2="0" y2="378" fill="rgb(0, 0, 0)" stroke="rgb(60, 60, 60)" stroke-width="1px" opacity="0.25"></line><line x1="110.203125" y1="0" x2="110.203125" y2="378" fill="rgb(0, 0, 0)" stroke="rgb(60, 60, 60)" stroke-width="1px" opacity="0.25"></line><line x1="220.40625" y1="0" x2="220.40625" y2="378" fill="rgb(0, 0, 0)" stroke="rgb(60, 60, 60)" stroke-width="1px" opacity="0.25"></line><line x1="330.609375" y1="0" x2="330.609375" y2="378" fill="rgb(0, 0, 0)" stroke="rgb(60, 60, 60)" stroke-width="1px" opacity="0.25"></line><line x1="440.8125" y1="0" x2="440.8125" y2="378" fill="rgb(0, 0, 0)" stroke="rgb(60, 60, 60)" stroke-width="1px" opacity="0.25"></line><line x1="551.015625" y1="0" x2="551.015625" y2="378" fill="rgb(0, 0, 0)" stroke="rgb(60, 60, 60)" stroke-width="1px" opacity="0.25"></line><line x1="661.21875" y1="0" x2="661.21875" y2="378" fill="rgb(0, 0, 0)" stroke="rgb(60, 60, 60)" stroke-width="1px" opacity="0.25"></line><line x1="771.421875" y1="0" x2="771.421875" y2="378" fill="rgb(0, 0, 0)" stroke="rgb(60, 60, 60)" stroke-width="1px" opacity="0.25"></line><line x1="881.625" y1="0" x2="881.625" y2="378" fill="rgb(0, 0, 0)" stroke="rgb(60, 60, 60)" stroke-width="1px" opacity="0.25"></line><line x1="991.828125" y1="0" x2="991.828125" y2="378" fill="rgb(0, 0, 0)" stroke="rgb(60, 60, 60)" stroke-width="1px" opacity="0.25"></line><line x1="1102.03125" y1="0" x2="1102.03125" y2="378" fill="rgb(0, 0, 0)" stroke="rgb(60, 60, 60)" stroke-width="1px" opacity="0.25"></line><line x1="1212.234375" y1="0" x2="1212.234375" y2="378" fill="rgb(0, 0, 0)" stroke="rgb(60, 60, 60)" stroke-width="1px" opacity="0.25"></line><line x1="1322.4375" y1="0" x2="1322.4375" y2="378" fill="rgb(0, 0, 0)" stroke="rgb(60, 60, 60)" stroke-width="1px" opacity="0.25"></line></g><g><line x1="0" y1="378" x2="1322.4375" y2="378" fill="rgb(0, 0, 0)" stroke="rgb(60, 60, 60)" stroke-width="1px" opacity="0.25"></line><line x1="0" y1="340.2" x2="1322.4375" y2="340.2" fill="rgb(0, 0, 0)" stroke="rgb(60, 60, 60)" stroke-width="1px" opacity="0.25"></line><line x1="0" y1="302.40000000000003" x2="1322.4375" y2="302.40000000000003" fill="rgb(0, 0, 0)" stroke="rgb(60, 60, 60)" stroke-width="1px" opacity="0.25"></line><line x1="0" y1="264.59999999999997" x2="1322.4375" y2="264.59999999999997" fill="rgb(0, 0, 0)" stroke="rgb(60, 60, 60)" stroke-width="1px" opacity="0.25"></line><line x1="0" y1="226.79999999999998" x2="1322.4375" y2="226.79999999999998" fill="rgb(0, 0, 0)" stroke="rgb(60, 60, 60)" stroke-width="1px" opacity="0.25"></line><line x1="0" y1="189" x2="1322.4375" y2="189" fill="rgb(0, 0, 0)" stroke="rgb(60, 60, 60)" stroke-width="1px" opacity="0.25"></line><line x1="0" y1="151.20000000000002" x2="1322.4375" y2="151.20000000000002" fill="rgb(0, 0, 0)" stroke="rgb(60, 60, 60)" stroke-width="1px" opacity="0.25"></line><line x1="0" y1="113.40000000000002" x2="1322.4375" y2="113.40000000000002" fill="rgb(0, 0, 0)" stroke="rgb(60, 60, 60)" stroke-width="1px" opacity="0.25"></line><line x1="0" y1="75.59999999999998" x2="1322.4375" y2="75.59999999999998" fill="rgb(0, 0, 0)" stroke="rgb(60, 60, 60)" stroke-width="1px" opacity="0.25"></line><line x1="0" y1="37.79999999999999" x2="1322.4375" y2="37.79999999999999" fill="rgb(0, 0, 0)" stroke="rgb(60, 60, 60)" stroke-width="1px" opacity="0.25"></line><line x1="0" y1="0" x2="1322.4375" y2="0" fill="rgb(0, 0, 0)" stroke="rgb(60, 60, 60)" stroke-width="1px" opacity="0.25"></line></g></g></g><g><g><line x1="0" y1="340.2" x2="1322.4375" y2="340.2" fill="rgb(0, 0, 0)" stroke="rgb(153, 153, 153)" stroke-width="1.5px"></line></g></g><g><g><line x1="110.203125" y1="0" x2="110.203125" y2="378" fill="rgb(0, 0, 0)" stroke="rgb(153, 153, 153)" stroke-width="1.5px"></line></g></g><g><g><g><g><g><path stroke="rgb(0, 119, 187)" stroke-width="2px" d="M110.203125,-230.71707229614262L132.24375,65.81305103302002L154.284375,152.31690273284912L176.325,169.930281829834L198.365625,179.24052028656004L220.40625,189.43642587661745L242.44687499999998,192.70027427673338L264.4875,191.6871202468872L286.528125,183.2309160232544L308.56875,195.33241996765136L330.609375,191.89350013732908L352.65,193.49203405380248L374.690625,192.48202528953553L396.73125,192.42168846130372L418.77187499999997,187.0677074432373L440.8125,193.099605846405L462.853125,195.71892714500427L484.89374999999995,194.74101090431213L506.93437500000005,188.48109426498414L528.975,188.03187103271486L551.015625,197.9851495742798L573.05625,191.69136500358582L595.0968750000001,191.46892533302307L617.1375,195.24504647254943L639.178125,196.72633137702942L661.21875,200.0171443462372L683.2593750000001,191.04982995986938L705.3,195.86825966835022L727.340625,191.9189416408539L749.38125,195.08392596244812L771.421875,191.33736491203308L793.4625,192.85068826675413L815.5031250000001,193.2439455986023L837.5437499999999,195.81078872680663L859.584375,192.6435603618622L881.625,191.0753345489502L903.665625,195.2727770805359L925.70625,192.28927187919615L947.746875,195.65815773010254L969.7874999999999,195.60678806304932L991.828125,193.09994831085206L1013.8687500000001,192.70396027565002L1035.909375,196.52879247665405L1057.95,191.6708441734314L1079.990625,191.25987782478333L1102.03125,192.92743635177612L1124.0718749999999,195.64103450775147L1146.1125,192.9905128955841L1168.153125,195.39481158256532L1190.1937500000001,193.26105079650878" style="fill: none;" fill="none"></path></g><g><path stroke="rgb(51, 187, 238)" stroke-width="2px" d="M132.24375,-107.42507686614992L154.284375,25.477264022827132L176.325,97.70362873077393L198.365625,101.29588251113891L220.40625,129.48533878326415L242.44687499999998,126.38024969100952L264.4875,140.63870286941528L286.528125,145.47087621688843L308.56875,147.7119996070862L330.609375,154.91570320129395L352.65,154.98495311737062L374.690625,150.04566049575806L396.73125,155.80978775024414L418.77187499999997,158.0524251937866L440.8125,154.48097162246702L462.853125,152.86390857696531L484.89374999999995,160.42029647827147L506.93437500000005,153.079354763031L528.975,151.56111974716188L551.015625,157.8039041519165L573.05625,150.378662109375L595.0968750000001,156.1018918991089L617.1375,157.5254264831543L639.178125,159.88758401870726L661.21875,153.30354280471803L683.2593750000001,152.8228669166565L705.3,161.31466941833494L727.340625,157.78863744735716L749.38125,152.36931781768797L771.421875,153.88969774246218L793.4625,162.32598495483398L815.5031250000001,155.9183850288391L837.5437499999999,154.55252866744993L859.584375,161.50107822418212L881.625,155.17493076324465L903.665625,157.1554747581482L925.70625,150.85457954406738L947.746875,151.3153384208679L969.7874999999999,163.7442023277283L991.828125,153.75860595703125L1013.8687500000001,161.73535995483397L1035.909375,161.7764196395874L1057.95,154.70786333084106L1079.990625,157.1722915649414L1102.03125,164.15816974639893L1124.0718749999999,158.5693302154541L1146.1125,153.84764671325684L1168.153125,154.6853688240051L1190.1937500000001,150.1257791519165" style="fill: none;" fill="none"></path></g><g><path stroke="rgb(0, 153, 136)" stroke-width="2px" d="M110.203125,153.27275705337524L132.24375,148.35394020080568L154.284375,143.7708466529846L176.325,152.30594387054444L198.365625,143.50201206207274L220.40625,144.5815320968628L242.44687499999998,143.05253648757935L264.4875,133.57802324295042L286.528125,134.47380208969116L308.56875,118.27107009887693" style="fill: none;" fill="none"></path></g><g><path stroke="rgb(204, 51, 17)" stroke-width="2px" d="M110.203125,-375.78941001892093L132.24375,45.200007820129414L154.284375,143.34289226531982L176.325,208.12386360168458L198.365625,247.18683643341066L220.40625,267.7909800767898L242.44687499999998,277.163551568985L264.4875,282.29754874706265L286.528125,289.75636131763457L308.56875,300.56356143951416L330.609375,298.28126571178433L352.65,296.4690114498139L374.690625,297.18433406353L396.73125,298.492516708374L418.77187499999997,300.07304420471195L440.8125,302.6450716137886L462.853125,301.0632125616074L484.89374999999995,299.0212007045746L506.93437500000005,301.73352813720703L528.975,301.5672346115112L551.015625,299.6858475923538L573.05625,297.50969331264497L595.0968750000001,299.2359529495239L617.1375,298.50328180789944L639.178125,301.37816269397734L661.21875,299.6379251003265L683.2593750000001,297.731736445427L705.3,301.04092984199525L727.340625,300.64919557571415L749.38125,302.40867201089856L771.421875,297.11926131248475L793.4625,302.0364649772644L815.5031250000001,300.53366339206696L837.5437499999999,295.75379247665404L859.584375,302.1646683454514L881.625,299.67973279953003L903.665625,297.4838192224502L925.70625,301.071868801117L947.746875,298.6004020214081L969.7874999999999,303.02237280607227L991.828125,299.3475648164749L1013.8687500000001,304.847654235363L1035.909375,300.5318203926086L1057.95,301.13348536491395L1079.990625,301.0236849546432L1102.03125,301.23999180793766L1124.0718749999999,299.8450800418854L1146.1125,301.71188979148866L1168.153125,303.42551654577255L1190.1937500000001,302.1178904056549" style="fill: none;" fill="none"></path></g><g><path stroke="rgb(238, 51, 119)" stroke-width="2px" d="M110.203125,298.60831475257874L132.24375,297.98928322792057L154.284375,296.1159801721573L176.325,294.4621562719345L198.365625,297.6449487447739L220.40625,292.44630239009854L242.44687499999998,289.4743869066238L264.4875,289.6888732910156L286.528125,288.8702255487442L308.56875,285.1664229869843" style="fill: none;" fill="none"></path></g><g><path stroke="rgb(255, 112, 67)" stroke-width="2px" d="M110.203125,-394.6395183563233L132.24375,108.45479536056519L154.284375,218.9140351295471L176.325,259.01011505126957L198.365625,274.4083710193634L220.40625,277.3580173015594L242.44687499999998,285.8576649427414L264.4875,280.890659737587L286.528125,286.42808003425597L308.56875,283.06804869174954L330.609375,285.5667233705521L352.65,281.85425555706024L374.690625,283.49631400108336L396.73125,285.8297540903091L418.77187499999997,283.66666302680966L440.8125,285.77540588378906L462.853125,284.6019289255142L484.89374999999995,287.6997857093811L506.93437500000005,285.1655803442001L528.975,286.41287190914153L551.015625,283.0929945230484L573.05625,281.84179165363315L595.0968750000001,278.0999665260315L617.1375,286.8630819797516L639.178125,285.2148411512375L661.21875,284.2837974786758L683.2593750000001,286.59204390048984L705.3,282.84911928176876L727.340625,287.29076149463657L749.38125,280.6187970399856L771.421875,282.65746986866L793.4625,287.9283311605454L815.5031250000001,284.2769842386246L837.5437499999999,286.94019956588744L859.584375,286.6020699977875L881.625,282.79575340747834L903.665625,282.4153700351715L925.70625,283.5826871395111L947.746875,284.9528603553772L969.7874999999999,285.11690533161163L991.828125,287.18182175159455L1013.8687500000001,284.2866453409195L1035.909375,282.9451354980469L1057.95,286.7752263307571L1079.990625,285.6925925731659L1102.03125,286.9823452234268L1124.0718749999999,284.3517992019653L1146.1125,284.8259907960892L1168.153125,284.16303820610045L1190.1937500000001,284.0200502872467" style="fill: none;" fill="none"></path></g></g></g></g></g></g><g transform="translate(51, 378)" clip-path="url(#clip_1)"><clipPath id="clip_1"><rect width="1322" height="22"></rect></clipPath><g><g><line x1="0" y1="0" x2="0" y2="5" style="visibility: inherit;" fill="rgb(0, 0, 0)" stroke="rgb(204, 204, 204)" stroke-width="1px"></line><line x1="110.203125" y1="0" x2="110.203125" y2="5" style="visibility: inherit;" fill="rgb(0, 0, 0)" stroke="rgb(204, 204, 204)" stroke-width="1px"></line><line x1="220.40625" y1="0" x2="220.40625" y2="5" style="visibility: inherit;" fill="rgb(0, 0, 0)" stroke="rgb(204, 204, 204)" stroke-width="1px"></line><line x1="330.609375" y1="0" x2="330.609375" y2="5" style="visibility: inherit;" fill="rgb(0, 0, 0)" stroke="rgb(204, 204, 204)" stroke-width="1px"></line><line x1="440.8125" y1="0" x2="440.8125" y2="5" style="visibility: inherit;" fill="rgb(0, 0, 0)" stroke="rgb(204, 204, 204)" stroke-width="1px"></line><line x1="551.015625" y1="0" x2="551.015625" y2="5" style="visibility: inherit;" fill="rgb(0, 0, 0)" stroke="rgb(204, 204, 204)" stroke-width="1px"></line><line x1="661.21875" y1="0" x2="661.21875" y2="5" style="visibility: inherit;" fill="rgb(0, 0, 0)" stroke="rgb(204, 204, 204)" stroke-width="1px"></line><line x1="771.421875" y1="0" x2="771.421875" y2="5" style="visibility: inherit;" fill="rgb(0, 0, 0)" stroke="rgb(204, 204, 204)" stroke-width="1px"></line><line x1="881.625" y1="0" x2="881.625" y2="5" style="visibility: inherit;" fill="rgb(0, 0, 0)" stroke="rgb(204, 204, 204)" stroke-width="1px"></line><line x1="991.828125" y1="0" x2="991.828125" y2="5" style="visibility: inherit;" fill="rgb(0, 0, 0)" stroke="rgb(204, 204, 204)" stroke-width="1px"></line><line x1="1102.03125" y1="0" x2="1102.03125" y2="5" style="visibility: inherit;" fill="rgb(0, 0, 0)" stroke="rgb(204, 204, 204)" stroke-width="1px"></line><line x1="1212.234375" y1="0" x2="1212.234375" y2="5" style="visibility: inherit;" fill="rgb(0, 0, 0)" stroke="rgb(204, 204, 204)" stroke-width="1px"></line><line x1="1322.4375" y1="0" x2="1322.4375" y2="5" style="visibility: inherit;" fill="rgb(0, 0, 0)" stroke="rgb(204, 204, 204)" stroke-width="1px"></line></g><g transform="translate(0, 8)"><text x="0" y="0" dx="0em" dy="0.95em" style="text-anchor: middle; visibility: hidden; font-family: Roboto, sans-serif; font-size: 12px; font-weight: 200;" fill="rgb(50, 49, 63)" stroke="none" stroke-width="1px">-5</text><text x="110.203125" y="0" dx="0em" dy="0.95em" style="text-anchor: middle; visibility: inherit; font-family: Roboto, sans-serif; font-size: 12px; font-weight: 200;" fill="rgb(50, 49, 63)" stroke="none" stroke-width="1px">0</text><text x="220.40625" y="0" dx="0em" dy="0.95em" style="text-anchor: middle; visibility: inherit; font-family: Roboto, sans-serif; font-size: 12px; font-weight: 200;" fill="rgb(50, 49, 63)" stroke="none" stroke-width="1px">5</text><text x="330.609375" y="0" dx="0em" dy="0.95em" style="text-anchor: middle; visibility: inherit; font-family: Roboto, sans-serif; font-size: 12px; font-weight: 200;" fill="rgb(50, 49, 63)" stroke="none" stroke-width="1px">10</text><text x="440.8125" y="0" dx="0em" dy="0.95em" style="text-anchor: middle; visibility: inherit; font-family: Roboto, sans-serif; font-size: 12px; font-weight: 200;" fill="rgb(50, 49, 63)" stroke="none" stroke-width="1px">15</text><text x="551.015625" y="0" dx="0em" dy="0.95em" style="text-anchor: middle; visibility: inherit; font-family: Roboto, sans-serif; font-size: 12px; font-weight: 200;" fill="rgb(50, 49, 63)" stroke="none" stroke-width="1px">20</text><text x="661.21875" y="0" dx="0em" dy="0.95em" style="text-anchor: middle; visibility: inherit; font-family: Roboto, sans-serif; font-size: 12px; font-weight: 200;" fill="rgb(50, 49, 63)" stroke="none" stroke-width="1px">25</text><text x="771.421875" y="0" dx="0em" dy="0.95em" style="text-anchor: middle; visibility: inherit; font-family: Roboto, sans-serif; font-size: 12px; font-weight: 200;" fill="rgb(50, 49, 63)" stroke="none" stroke-width="1px">30</text><text x="881.625" y="0" dx="0em" dy="0.95em" style="text-anchor: middle; visibility: inherit; font-family: Roboto, sans-serif; font-size: 12px; font-weight: 200;" fill="rgb(50, 49, 63)" stroke="none" stroke-width="1px">35</text><text x="991.828125" y="0" dx="0em" dy="0.95em" style="text-anchor: middle; visibility: inherit; font-family: Roboto, sans-serif; font-size: 12px; font-weight: 200;" fill="rgb(50, 49, 63)" stroke="none" stroke-width="1px">40</text><text x="1102.03125" y="0" dx="0em" dy="0.95em" style="text-anchor: middle; visibility: inherit; font-family: Roboto, sans-serif; font-size: 12px; font-weight: 200;" fill="rgb(50, 49, 63)" stroke="none" stroke-width="1px">45</text><text x="1212.234375" y="0" dx="0em" dy="0.95em" style="text-anchor: middle; visibility: inherit; font-family: Roboto, sans-serif; font-size: 12px; font-weight: 200;" fill="rgb(50, 49, 63)" stroke="none" stroke-width="1px">50</text><text x="1322.4375" y="0" dx="0em" dy="0.95em" style="text-anchor: middle; visibility: hidden; font-family: Roboto, sans-serif; font-size: 12px; font-weight: 200;" fill="rgb(50, 49, 63)" stroke="none" stroke-width="1px">55</text></g><line x1="0" y1="0" x2="1322.4375" y2="0" fill="rgb(0, 0, 0)" stroke="rgb(204, 204, 204)" stroke-width="1px"></line></g></g></g></g></svg>