<svg viewBox="0 0 1073 400" xmlns="http://www.w3.org/2000/svg"><g><g><g><g><g><line x1="50" y1="378" x2="45" y2="378" style="visibility: inherit;" fill="rgb(0, 0, 0)" stroke="rgb(204, 204, 204)" stroke-width="1px"></line><line x1="50" y1="330.74999999999994" x2="45" y2="330.74999999999994" style="visibility: inherit;" fill="rgb(0, 0, 0)" stroke="rgb(204, 204, 204)" stroke-width="1px"></line><line x1="50" y1="283.5000000000001" x2="45" y2="283.5000000000001" style="visibility: inherit;" fill="rgb(0, 0, 0)" stroke="rgb(204, 204, 204)" stroke-width="1px"></line><line x1="50" y1="236.25000000000009" x2="45" y2="236.25000000000009" style="visibility: inherit;" fill="rgb(0, 0, 0)" stroke="rgb(204, 204, 204)" stroke-width="1px"></line><line x1="50" y1="189" x2="45" y2="189" style="visibility: inherit;" fill="rgb(0, 0, 0)" stroke="rgb(204, 204, 204)" stroke-width="1px"></line><line x1="50" y1="141.74999999999991" x2="45" y2="141.74999999999991" style="visibility: inherit;" fill="rgb(0, 0, 0)" stroke="rgb(204, 204, 204)" stroke-width="1px"></line><line x1="50" y1="94.49999999999987" x2="45" y2="94.49999999999987" style="visibility: inherit;" fill="rgb(0, 0, 0)" stroke="rgb(204, 204, 204)" stroke-width="1px"></line><line x1="50" y1="47.24999999999979" x2="45" y2="47.24999999999979" style="visibility: inherit;" fill="rgb(0, 0, 0)" stroke="rgb(204, 204, 204)" stroke-width="1px"></line><line x1="50" y1="0" x2="45" y2="0" style="visibility: inherit;" fill="rgb(0, 0, 0)" stroke="rgb(204, 204, 204)" stroke-width="1px"></line></g><g transform="translate(40, 0)"><text x="0" y="378" dx="0em" dy="0.3em" style="text-anchor: end; visibility: hidden; font-family: Roboto, sans-serif; font-size: 12px; font-weight: 200;" fill="rgb(50, 49, 63)" stroke="none" stroke-width="1px">0.78</text><text x="0" y="330.74999999999994" dx="0em" dy="0.3em" style="text-anchor: end; visibility: inherit; font-family: Roboto, sans-serif; font-size: 12px; font-weight: 200;" fill="rgb(50, 49, 63)" stroke="none" stroke-width="1px">0.8</text><text x="0" y="283.5000000000001" dx="0em" dy="0.3em" style="text-anchor: end; visibility: inherit; font-family: Roboto, sans-serif; font-size: 12px; font-weight: 200;" fill="rgb(50, 49, 63)" stroke="none" stroke-width="1px">0.82</text><text x="0" y="236.25000000000009" dx="0em" dy="0.3em" style="text-anchor: end; visibility: inherit; font-family: Roboto, sans-serif; font-size: 12px; font-weight: 200;" fill="rgb(50, 49, 63)" stroke="none" stroke-width="1px">0.84</text><text x="0" y="189" dx="0em" dy="0.3em" style="text-anchor: end; visibility: inherit; font-family: Roboto, sans-serif; font-size: 12px; font-weight: 200;" fill="rgb(50, 49, 63)" stroke="none" stroke-width="1px">0.86</text><text x="0" y="141.74999999999991" dx="0em" dy="0.3em" style="text-anchor: end; visibility: inherit; font-family: Roboto, sans-serif; font-size: 12px; font-weight: 200;" fill="rgb(50, 49, 63)" stroke="none" stroke-width="1px">0.88</text><text x="0" y="94.49999999999987" dx="0em" dy="0.3em" style="text-anchor: end; visibility: inherit; font-family: Roboto, sans-serif; font-size: 12px; font-weight: 200;" fill="rgb(50, 49, 63)" stroke="none" stroke-width="1px">0.9</text><text x="0" y="47.24999999999979" dx="0em" dy="0.3em" style="text-anchor: end; visibility: inherit; font-family: Roboto, sans-serif; font-size: 12px; font-weight: 200;" fill="rgb(50, 49, 63)" stroke="none" stroke-width="1px">0.92</text><text x="0" y="0" dx="0em" dy="0.3em" style="text-anchor: end; visibility: hidden; font-family: Roboto, sans-serif; font-size: 12px; font-weight: 200;" fill="rgb(50, 49, 63)" stroke="none" stroke-width="1px">0.94</text></g><line x1="50" y1="0" x2="50" y2="378" fill="rgb(0, 0, 0)" stroke="rgb(204, 204, 204)" stroke-width="1px"></line></g></g><g transform="translate(50, 0)" clip-path="url(#clip_0)"><clipPath id="clip_0"><rect width="1023" height="378"></rect></clipPath><g><g><g><line x1="0" y1="0" x2="0" y2="378" fill="rgb(0, 0, 0)" stroke="rgb(60, 60, 60)" stroke-width="1px" opacity="0.25"></line><line x1="85.25" y1="0" x2="85.25" y2="378" fill="rgb(0, 0, 0)" stroke="rgb(60, 60, 60)" stroke-width="1px" opacity="0.25"></line><line x1="170.5" y1="0" x2="170.5" y2="378" fill="rgb(0, 0, 0)" stroke="rgb(60, 60, 60)" stroke-width="1px" opacity="0.25"></line><line x1="255.75" y1="0" x2="255.75" y2="378" fill="rgb(0, 0, 0)" stroke="rgb(60, 60, 60)" stroke-width="1px" opacity="0.25"></line><line x1="341" y1="0" x2="341" y2="378" fill="rgb(0, 0, 0)" stroke="rgb(60, 60, 60)" stroke-width="1px" opacity="0.25"></line><line x1="426.25" y1="0" x2="426.25" y2="378" fill="rgb(0, 0, 0)" stroke="rgb(60, 60, 60)" stroke-width="1px" opacity="0.25"></line><line x1="511.5" y1="0" x2="511.5" y2="378" fill="rgb(0, 0, 0)" stroke="rgb(60, 60, 60)" stroke-width="1px" opacity="0.25"></line><line x1="596.75" y1="0" x2="596.75" y2="378" fill="rgb(0, 0, 0)" stroke="rgb(60, 60, 60)" stroke-width="1px" opacity="0.25"></line><line x1="682" y1="0" x2="682" y2="378" fill="rgb(0, 0, 0)" stroke="rgb(60, 60, 60)" stroke-width="1px" opacity="0.25"></line><line x1="767.25" y1="0" x2="767.25" y2="378" fill="rgb(0, 0, 0)" stroke="rgb(60, 60, 60)" stroke-width="1px" opacity="0.25"></line><line x1="852.5" y1="0" x2="852.5" y2="378" fill="rgb(0, 0, 0)" stroke="rgb(60, 60, 60)" stroke-width="1px" opacity="0.25"></line><line x1="937.75" y1="0" x2="937.75" y2="378" fill="rgb(0, 0, 0)" stroke="rgb(60, 60, 60)" stroke-width="1px" opacity="0.25"></line><line x1="1023" y1="0" x2="1023" y2="378" fill="rgb(0, 0, 0)" stroke="rgb(60, 60, 60)" stroke-width="1px" opacity="0.25"></line></g><g><line x1="0" y1="378" x2="1023" y2="378" fill="rgb(0, 0, 0)" stroke="rgb(60, 60, 60)" stroke-width="1px" opacity="0.25"></line><line x1="0" y1="330.74999999999994" x2="1023" y2="330.74999999999994" fill="rgb(0, 0, 0)" stroke="rgb(60, 60, 60)" stroke-width="1px" opacity="0.25"></line><line x1="0" y1="283.5000000000001" x2="1023" y2="283.5000000000001" fill="rgb(0, 0, 0)" stroke="rgb(60, 60, 60)" stroke-width="1px" opacity="0.25"></line><line x1="0" y1="236.25000000000009" x2="1023" y2="236.25000000000009" fill="rgb(0, 0, 0)" stroke="rgb(60, 60, 60)" stroke-width="1px" opacity="0.25"></line><line x1="0" y1="189" x2="1023" y2="189" fill="rgb(0, 0, 0)" stroke="rgb(60, 60, 60)" stroke-width="1px" opacity="0.25"></line><line x1="0" y1="141.74999999999991" x2="1023" y2="141.74999999999991" fill="rgb(0, 0, 0)" stroke="rgb(60, 60, 60)" stroke-width="1px" opacity="0.25"></line><line x1="0" y1="94.49999999999987" x2="1023" y2="94.49999999999987" fill="rgb(0, 0, 0)" stroke="rgb(60, 60, 60)" stroke-width="1px" opacity="0.25"></line><line x1="0" y1="47.24999999999979" x2="1023" y2="47.24999999999979" fill="rgb(0, 0, 0)" stroke="rgb(60, 60, 60)" stroke-width="1px" opacity="0.25"></line><line x1="0" y1="0" x2="1023" y2="0" fill="rgb(0, 0, 0)" stroke="rgb(60, 60, 60)" stroke-width="1px" opacity="0.25"></line></g></g></g><g><g><line x1="0" y1="2220.750000000001" x2="1023" y2="2220.750000000001" fill="rgb(0, 0, 0)" stroke="rgb(153, 153, 153)" stroke-width="1.5px"></line></g></g><g><g><line x1="85.25" y1="0" x2="85.25" y2="378" fill="rgb(0, 0, 0)" stroke="rgb(153, 153, 153)" stroke-width="1.5px"></line></g></g><g><g><g><g><g><path stroke="rgb(0, 119, 187)" stroke-width="2px" d="M85.25,511.28872302174585L102.30000000000001,304.6776127517224L119.35000000000001,243.18623435497284L136.4,241.34154510498047L153.45,216.74493741989136L170.5,196.45279240608215L187.54999999999998,204.4466335773468L204.60000000000002,211.21072885394096L221.65,203.83169022202492L238.70000000000002,198.9124250113964L255.75,206.29132282733917L272.8,191.53338637948036L289.84999999999997,200.14231172204018L306.9,201.98700097203255L323.95,205.67652028799057L341,198.29748165607452L358.04999999999995,191.53338637948036L375.09999999999997,197.06773576140404L392.15000000000003,197.06773576140404L409.20000000000005,201.37205761671066L426.25,193.9931598007679L443.3,196.45279240608215L460.35,201.98700097203255L477.40000000000003,197.06773576140404L494.45,203.21674686670303L511.5,194.6079623401165L528.5500000000001,208.7510962486267L545.6,203.21674686670303L562.6500000000001,208.13615289330482L579.6999999999999,194.6079623401165L596.75,200.14231172204018L613.8,195.83784905076027L630.85,201.98700097203255L647.9,192.76327309012413L664.95,198.9124250113964L682,195.22290569543839L699.0500000000001,192.76327309012413L716.0999999999999,204.4466335773468L733.15,193.37821644544601L750.1999999999999,193.9931598007679L767.25,188.4588104188442L784.3000000000001,193.37821644544601L801.35,199.5273683667183L818.4000000000001,199.5273683667183L835.4499999999999,197.68253830075264L852.5,205.67652028799057L869.55,190.91858384013176L886.6,198.29748165607452L903.65,198.29748165607452L920.7,196.45279240608215" style="fill: none;" fill="none"></path></g><g><path stroke="rgb(51, 187, 238)" stroke-width="2px" d="M85.25,360.0199800431729L102.30000000000001,421.5113584399224L119.35000000000001,312.6715947389603L136.4,229.0432412624359L153.45,257.94417080283165L170.5,209.3658987879753L187.54999999999998,218.58962666988373L204.60000000000002,208.7510962486267L221.65,174.31581732630727L238.70000000000002,191.53338637948036L255.75,176.16064739227292L272.8,181.07991260290143L289.84999999999997,171.24124136567113L306.9,187.2290645241737L323.95,172.4711280763149L341,175.54570403695104L358.04999999999995,180.46496924757955L375.09999999999997,171.856184720993L392.15000000000003,186.61412116885182L409.20000000000005,174.31581732630727L426.25,173.70087397098538L443.3,185.38437527418134L460.35,173.70087397098538L477.40000000000003,171.856184720993L494.45,174.93076068162915L511.5,178.62027999758718L528.5500000000001,170.01149547100064L545.6,166.32197615504262L562.6500000000001,179.85002589225766L579.6999999999999,181.07991260290143L596.75,175.54570403695104L613.8,173.08607143163678L630.85,178.0053366422653L647.9,176.77544993162152L664.95,171.856184720993L682,166.9369195103645L699.0500000000001,168.166665405035L716.0999999999999,169.39655211567876L733.15,179.85002589225766L750.1999999999999,166.9369195103645L767.25,178.0053366422653L784.3000000000001,171.856184720993L801.35,171.856184720993L818.4000000000001,177.3903932869434L835.4499999999999,175.54570403695104L852.5,176.16064739227292L869.55,171.856184720993L886.6,174.93076068162915L903.65,179.85002589225766L920.7,175.54570403695104" style="fill: none;" fill="none"></path></g><g><path stroke="rgb(0, 153, 136)" stroke-width="2px" d="M85.25,181.69485595822331L102.30000000000001,176.16064739227292L119.35000000000001,179.85002589225766L136.4,175.54570403695104L153.45,181.69485595822331L170.5,174.93076068162915L187.54999999999998,187.2290645241737L204.60000000000002,190.30364048480988L221.65,181.07991260290143L238.70000000000002,194.6079623401165" style="fill: none;" fill="none"></path></g><g><path stroke="rgb(204, 51, 17)" stroke-width="2px" d="M85.25,636.4169519841672L102.30000000000001,332.12349084019667L119.35000000000001,243.89960807561874L136.4,197.4103410243988L153.45,139.2986868023872L170.5,114.46931031346313L187.54999999999998,100.99786859750739L204.60000000000002,93.86610281467429L221.65,82.24371564388267L238.70000000000002,67.18753096461288L255.75,70.09312775731078L272.8,69.30075627565375L289.84999999999997,71.14967000484458L306.9,68.77241474390021L323.95,66.39515948295585L341,60.055624365806494L358.04999999999995,66.39515948295585L375.09999999999997,60.848136663436804L392.15000000000003,65.07444646954528L409.20000000000005,61.9046789109706L426.25,66.39515948295585L443.3,67.45170173048965L460.35,66.13098871707908L477.40000000000003,68.50824397802344L494.45,64.54610493779174L511.5,65.33861723542205L528.5500000000001,68.24407321214667L545.6,66.13098871707908L562.6500000000001,62.16884967684737L579.6999999999999,66.13098871707908L596.75,66.65933024883262L613.8,64.81027570366851L630.85,63.22539192438117L647.9,66.39515948295585L664.95,64.0177634060382L682,65.86681795120231L699.0500000000001,67.18753096461288L716.0999999999999,63.22539192438117L733.15,68.50824397802344L750.1999999999999,58.47088140249244L767.25,59.263252884149466L784.3000000000001,64.81027570366851L801.35,60.055624365806494L818.4000000000001,60.319795131683264L835.4499999999999,62.69705039262763L852.5,64.0177634060382L869.55,62.9612211585044L886.6,61.37633737921706L903.65,58.47088140249244L920.7,66.65933024883262" style="fill: none;" fill="none"></path></g><g><path stroke="rgb(238, 51, 119)" stroke-width="2px" d="M85.25,64.54610493779174L102.30000000000001,70.35729852318755L119.35000000000001,67.45170173048965L136.4,79.60228961706153L153.45,69.82895699143401L170.5,72.99872455000869L187.54999999999998,75.64015057682983L204.60000000000002,82.24371564388267L221.65,81.9795448780059L238.70000000000002,81.18717339634887" style="fill: none;" fill="none"></path></g><g><path stroke="rgb(255, 112, 67)" stroke-width="2px" d="M85.25,645.926113843918L102.30000000000001,262.65376102924347L119.35000000000001,196.61796954274178L136.4,148.01547718048093L153.45,118.6956201195716L170.5,116.58239480853072L187.54999999999998,106.8090621829032L204.60000000000002,101.26203936338416L221.65,98.62061333656303L238.70000000000002,104.43180692195884L255.75,98.62061333656303L272.8,104.16763615608207L289.84999999999997,103.63943544030181L306.9,103.63943544030181L323.95,104.16763615608207L341,102.58275237679473L358.04999999999995,107.33740371465674L375.09999999999997,103.9034653902053L392.15000000000003,100.7338386476039L409.20000000000005,102.31858161091796L426.25,103.63943544030181L443.3,105.22417840361587L460.35,111.03537198901168L477.40000000000003,97.56407108902923L494.45,102.05455166101447L511.5,103.9034653902053L528.5500000000001,106.28086146712295L545.6,108.12977519631377L562.6500000000001,106.01669070124618L579.6999999999999,107.60157448053351L596.75,100.20549711585036L613.8,98.09241262078277L630.85,101.7903808951377L647.9,97.828241854906L664.95,102.8469231426715L682,104.69597768783561L699.0500000000001,113.14859730005256L716.0999999999999,106.8090621829032L733.15,103.11109390854827L750.1999999999999,101.52621012926093L767.25,99.41312563419334L784.3000000000001,106.01669070124618L801.35,109.45048820972434L818.4000000000001,99.14895486831657L835.4499999999999,99.41312563419334L852.5,99.41312563419334L869.55,107.60157448053351L886.6,100.20549711585036L903.65,97.828241854906L920.7,104.16763615608207" style="fill: none;" fill="none"></path></g></g></g></g></g></g><g transform="translate(50, 378)" clip-path="url(#clip_1)"><clipPath id="clip_1"><rect width="1023" height="22"></rect></clipPath><g><g><line x1="0" y1="0" x2="0" y2="5" style="visibility: inherit;" fill="rgb(0, 0, 0)" stroke="rgb(204, 204, 204)" stroke-width="1px"></line><line x1="85.25" y1="0" x2="85.25" y2="5" style="visibility: inherit;" fill="rgb(0, 0, 0)" stroke="rgb(204, 204, 204)" stroke-width="1px"></line><line x1="170.5" y1="0" x2="170.5" y2="5" style="visibility: inherit;" fill="rgb(0, 0, 0)" stroke="rgb(204, 204, 204)" stroke-width="1px"></line><line x1="255.75" y1="0" x2="255.75" y2="5" style="visibility: inherit;" fill="rgb(0, 0, 0)" stroke="rgb(204, 204, 204)" stroke-width="1px"></line><line x1="341" y1="0" x2="341" y2="5" style="visibility: inherit;" fill="rgb(0, 0, 0)" stroke="rgb(204, 204, 204)" stroke-width="1px"></line><line x1="426.25" y1="0" x2="426.25" y2="5" style="visibility: inherit;" fill="rgb(0, 0, 0)" stroke="rgb(204, 204, 204)" stroke-width="1px"></line><line x1="511.5" y1="0" x2="511.5" y2="5" style="visibility: inherit;" fill="rgb(0, 0, 0)" stroke="rgb(204, 204, 204)" stroke-width="1px"></line><line x1="596.75" y1="0" x2="596.75" y2="5" style="visibility: inherit;" fill="rgb(0, 0, 0)" stroke="rgb(204, 204, 204)" stroke-width="1px"></line><line x1="682" y1="0" x2="682" y2="5" style="visibility: inherit;" fill="rgb(0, 0, 0)" stroke="rgb(204, 204, 204)" stroke-width="1px"></line><line x1="767.25" y1="0" x2="767.25" y2="5" style="visibility: inherit;" fill="rgb(0, 0, 0)" stroke="rgb(204, 204, 204)" stroke-width="1px"></line><line x1="852.5" y1="0" x2="852.5" y2="5" style="visibility: inherit;" fill="rgb(0, 0, 0)" stroke="rgb(204, 204, 204)" stroke-width="1px"></line><line x1="937.75" y1="0" x2="937.75" y2="5" style="visibility: inherit;" fill="rgb(0, 0, 0)" stroke="rgb(204, 204, 204)" stroke-width="1px"></line><line x1="1023" y1="0" x2="1023" y2="5" style="visibility: inherit;" fill="rgb(0, 0, 0)" stroke="rgb(204, 204, 204)" stroke-width="1px"></line></g><g transform="translate(0, 8)"><text x="0" y="0" dx="0em" dy="0.95em" style="text-anchor: middle; visibility: hidden; font-family: Roboto, sans-serif; font-size: 12px; font-weight: 200;" fill="rgb(50, 49, 63)" stroke="none" stroke-width="1px">-5</text><text x="85.25" y="0" dx="0em" dy="0.95em" style="text-anchor: middle; visibility: inherit; font-family: Roboto, sans-serif; font-size: 12px; font-weight: 200;" fill="rgb(50, 49, 63)" stroke="none" stroke-width="1px">0</text><text x="170.5" y="0" dx="0em" dy="0.95em" style="text-anchor: middle; visibility: inherit; font-family: Roboto, sans-serif; font-size: 12px; font-weight: 200;" fill="rgb(50, 49, 63)" stroke="none" stroke-width="1px">5</text><text x="255.75" y="0" dx="0em" dy="0.95em" style="text-anchor: middle; visibility: inherit; font-family: Roboto, sans-serif; font-size: 12px; font-weight: 200;" fill="rgb(50, 49, 63)" stroke="none" stroke-width="1px">10</text><text x="341" y="0" dx="0em" dy="0.95em" style="text-anchor: middle; visibility: inherit; font-family: Roboto, sans-serif; font-size: 12px; font-weight: 200;" fill="rgb(50, 49, 63)" stroke="none" stroke-width="1px">15</text><text x="426.25" y="0" dx="0em" dy="0.95em" style="text-anchor: middle; visibility: inherit; font-family: Roboto, sans-serif; font-size: 12px; font-weight: 200;" fill="rgb(50, 49, 63)" stroke="none" stroke-width="1px">20</text><text x="511.5" y="0" dx="0em" dy="0.95em" style="text-anchor: middle; visibility: inherit; font-family: Roboto, sans-serif; font-size: 12px; font-weight: 200;" fill="rgb(50, 49, 63)" stroke="none" stroke-width="1px">25</text><text x="596.75" y="0" dx="0em" dy="0.95em" style="text-anchor: middle; visibility: inherit; font-family: Roboto, sans-serif; font-size: 12px; font-weight: 200;" fill="rgb(50, 49, 63)" stroke="none" stroke-width="1px">30</text><text x="682" y="0" dx="0em" dy="0.95em" style="text-anchor: middle; visibility: inherit; font-family: Roboto, sans-serif; font-size: 12px; font-weight: 200;" fill="rgb(50, 49, 63)" stroke="none" stroke-width="1px">35</text><text x="767.25" y="0" dx="0em" dy="0.95em" style="text-anchor: middle; visibility: inherit; font-family: Roboto, sans-serif; font-size: 12px; font-weight: 200;" fill="rgb(50, 49, 63)" stroke="none" stroke-width="1px">40</text><text x="852.5" y="0" dx="0em" dy="0.95em" style="text-anchor: middle; visibility: inherit; font-family: Roboto, sans-serif; font-size: 12px; font-weight: 200;" fill="rgb(50, 49, 63)" stroke="none" stroke-width="1px">45</text><text x="937.75" y="0" dx="0em" dy="0.95em" style="text-anchor: middle; visibility: inherit; font-family: Roboto, sans-serif; font-size: 12px; font-weight: 200;" fill="rgb(50, 49, 63)" stroke="none" stroke-width="1px">50</text><text x="1023" y="0" dx="0em" dy="0.95em" style="text-anchor: middle; visibility: hidden; font-family: Roboto, sans-serif; font-size: 12px; font-weight: 200;" fill="rgb(50, 49, 63)" stroke="none" stroke-width="1px">55</text></g><line x1="0" y1="0" x2="1023" y2="0" fill="rgb(0, 0, 0)" stroke="rgb(204, 204, 204)" stroke-width="1px"></line></g></g></g></g></svg>